<mxfile host="app.diagrams.net" modified="2023-06-16T10:04:11.803Z" agent="Mozilla/5.0 (Windows NT 10.0; Win64; x64) AppleWebKit/537.36 (KHTML, like Gecko) Chrome/114.0.0.0 Safari/537.36" version="21.4.0" etag="VtOFAbs-mD68myJeesq1" type="github">
  <diagram name="Page-1" id="HTSBAiY5E0kAKdFP2ZjX">
    <mxGraphModel>
      <root>
        <mxCell id="0" />
        <mxCell id="1" parent="0" />
      </root>
    </mxGraphModel>
  </diagram>
</mxfile>
